inDegrees=no
num_controls=7
num_derivatives=13
num_iterations=174
num_multipliers=7
num_parameters=0
num_slacks=7
num_states=26
objective=4.148128
objective_accelerations=0.295546
objective_balance=0.079204
objective_effort=0.293864
objective_height=3.438476
objective_ligament=0.041038
solver_duration=1872.013145
status=Solve_Succeeded
success=true
DataType=double
version=3
OpenSimVersion=4.4-2022-07-23-0e9fedc
endheader
time	/jointset/ground_pelvis/pelvis_tilt/value	/jointset/ground_pelvis/pelvis_tx/value	/jointset/ground_pelvis/pelvis_ty/value	/jointset/hip_l/hip_flexion_l/value	/jointset/hip_l/hip_adduction_l/value	/jointset/hip_l/hip_rotation_l/value	/jointset/back/lumbar_extension/value	/jointset/patellofemoral_l/patellar_flexion_l/value	/jointset/knee_l/knee_flexion_l/value	/jointset/knee_l/knee_adduction_l/value	/jointset/knee_l/knee_rotation_l/value	/jointset/ankle_l/ankle_angle_l/value	/jointset/subtalar_l/subtalar_angle_l/value	/jointset/ground_pelvis/pelvis_tilt/speed	/jointset/ground_pelvis/pelvis_tx/speed	/jointset/ground_pelvis/pelvis_ty/speed	/jointset/hip_l/hip_flexion_l/speed	/jointset/hip_l/hip_adduction_l/speed	/jointset/hip_l/hip_rotation_l/speed	/jointset/back/lumbar_extension/speed	/jointset/patellofemoral_l/patellar_flexion_l/speed	/jointset/knee_l/knee_flexion_l/speed	/jointset/knee_l/knee_adduction_l/speed	/jointset/knee_l/knee_rotation_l/speed	/jointset/ankle_l/ankle_angle_l/speed	/jointset/subtalar_l/subtalar_angle_l/speed	/forceset/tau_hip_flexion_l	/forceset/tau_hip_adduction_l	/forceset/tau_hip_rotation_l	/forceset/tau_knee_flexion_l	/forceset/tau_ankle_angle_l	/forceset/tau_subtalar_angle_l	/forceset/tau_lumbar_extension	lambda_cid13_p0	lambda_cid13_p1	lambda_cid13_p2	lambda_cid13_p3	lambda_cid13_p4	lambda_cid13_p5	lambda_cid14_p0	/jointset/ground_pelvis/pelvis_tilt/accel	/jointset/ground_pelvis/pelvis_tx/accel	/jointset/ground_pelvis/pelvis_ty/accel	/jointset/hip_l/hip_flexion_l/accel	/jointset/hip_l/hip_adduction_l/accel	/jointset/hip_l/hip_rotation_l/accel	/jointset/back/lumbar_extension/accel	/jointset/patellofemoral_l/patellar_flexion_l/accel	/jointset/knee_l/knee_flexion_l/accel	/jointset/knee_l/knee_adduction_l/accel	/jointset/knee_l/knee_rotation_l/accel	/jointset/ankle_l/ankle_angle_l/accel	/jointset/subtalar_l/subtalar_angle_l/accel	gamma_cid13_p0	gamma_cid13_p1	gamma_cid13_p2	gamma_cid13_p3	gamma_cid13_p4	gamma_cid13_p5	gamma_cid14_p0
0.5	-0.246383872994613	0.02670686175059327	0.8188377976507506	0.8815211718985463	-0.3045423352899029	-0.05300306849405749	-0.2866248109108037	0.6477689345929731	0.6477689345929659	-0.1718160332444599	0.174532810762432	0.1864165049764961	-0.01180450892126868	-0.208253475057726	-0.06569684279168977	-0.308303704618569	1.376841264072169	-0.03068262820249107	0.5973090741275233	-0.6345075633285326	1.681070115822276	1.681070115822279	-0.00918763813545985	8.344659775998819e-06	0.6214368107904811	0.07816369551853493	-0.1322213292781325	0.02771297599320315	-0.02547383543120743	-0.2304156547809836	0.03738758215307497	0.04311519978657081	0.1479433663478604	-26.14721952288549	-18.75709291497566	7.854103599188385	5.927111906851587	-610.2277890502241	-65.0707350081826	-30.633340798505	0.2046481615707381	0.197381875961721	-0.3015184553947095	-0.7859167396328836	0.4933618764586984	-0.3705968002617943	1.022096939789074	-0.9879924409194948	-0.9879924409194979	-0.03563554818675442	-0.02997694734319637	-0.4028235452282559	0.4854027993968364	-1.07873232813391e-07	-1.204862478278628e-06	6.480572727258991e-07	-7.621801834785805e-08	-1.29507583472277e-07	-8.287493742657413e-07	-1.67922139250529e-07
0.51	-0.2484558819875544	0.02605988787314618	0.8157402842836066	0.8952480934304852	-0.3048253274732212	-0.04705002846651657	-0.2929180138323926	0.6645278399045319	0.6645278399045335	-0.1719105904603533	0.1745326418184487	0.1926096243473974	-0.01099960332994988	-0.206130823608334	-0.06368824901360934	-0.3111363216289166	1.368356860278258	-0.02593234305565923	0.5931962760860358	-0.6240477452758327	1.670484783891893	1.670484783891879	-0.009698208361841657	-2.525016633781936e-05	0.6171029180810435	0.08280066047077118	-0.136625880462094	0.02868910000191325	-0.02560988018003546	-0.2323042905028215	0.03393290358772542	0.04386699331832	0.1518490835717247	-27.34759938456143	-18.82085218584193	7.804224146008147	6.300798554800823	-612.7457090897952	-64.95115939149562	-29.70474849783549	0.2186857388565363	0.2040370052199255	-0.2647627687423264	-0.9076440876807117	0.4633832481434571	-0.447191509754085	1.070715595024833	-1.12769420817092	-1.127694208173559	-0.0550621546601797	0.01235353257132337	-0.4613143068386322	0.4504341484633544	-1.527144225661042e-07	-1.060742377920179e-06	8.551784289594063e-07	-3.185969562555997e-08	-1.644542946890836e-07	-8.248230098849562e-07	-1.89006596487143e-07
0.52	-0.2505061420455547	0.0254332877087776	0.8126163188573816	0.9088845825468029	-0.3050613125222025	-0.04114123046012375	-0.2991040603020513	0.6811741137689724	0.6811741137689817	-0.1720095122574683	0.174532617782769	0.1987568763565964	-0.01014880992804352	-0.2039036880696182	-0.06162210017598759	-0.3135941164347571	1.358754780947925	-0.02128120133490368	0.5884606698980743	-0.6130762729425564	1.658543826398582	1.65854382639855	-0.0100605543800766	3.73263202201608e-05	0.6122633384501214	0.08734125763606043	-0.1410304316460589	0.02966522401061472	-0.02574592492885499	-0.2341929262246627	0.030478225022373	0.04461878685005897	0.1557548007955887	-28.55491022345567	-18.88667825844896	7.758422056861189	6.676878603830462	-615.3842371608721	-64.884069302763	-28.76043408824241	0.2255449794355215	0.2088928878699793	-0.2265540144933063	-1.009451846917383	0.4735331912434451	-0.4951584295565816	1.124427795904356	-1.259117553505052	-1.259117553505015	-0.00599070655738054	-0.01074268480883889	-0.5039609295251744	0.4661292420074402	-2.306469358769319e-07	-8.485884956592298e-07	1.227491855319246e-06	4.192746393779425e-08	-2.287919248089266e-07	-8.382085997628928e-07	-2.299275506785434e-07
0.53	-0.2525335313420354	0.02482759683097463	0.8094696944132528	0.9224193595904865	-0.3052515801742611	-0.03528134520229889	-0.30517806093974	0.6976939625118216	0.6976939625118246	-0.1721126052923614	0.1745326532045298	0.2048530900495028	-0.009253493799159284	-0.2015565952574712	-0.05951086219469801	-0.3156652718803875	1.348022787921412	-0.01679306410897925	0.5834245030434044	-0.6016511036982168	1.645207536524778	1.645207536524753	-0.01053764757745364	-1.742307937210017e-05	0.6068962887082656	0.09169915635146852	-0.1453526524888106	0.03065356464180072	-0.02586565995743726	-0.236085572871493	0.02705480053454282	0.0451501941667636	0.1595755732757337	-29.75819965068181	-18.84685421038795	7.683621303661879	7.097624304983177	-617.998910564515	-64.64046691246659	-27.80412565008384	0.2419009335436093	0.213037368603176	-0.1876237500950063	-1.131781739213463	0.433183782528042	-0.5218555054053263	1.162474123247166	-1.403592266982719	-1.40359226698187	-0.06553715592515835	-0.00118130046692227	-0.5655566858451951	0.417148924788336	-2.646329521591631e-07	-6.948562761849941e-07	1.391455663718054e-06	8.241532926891604e-08	-2.567338005371234e-07	-8.084817888939176e-07	-2.439565710512394e-07
0.54	-0.2545369278101047	0.02424317795605345	0.8063043129265682	0.9358414749621666	-0.3053976204952085	-0.0294746235514192	-0.3111356273580752	0.7140739068433996	0.7140739068433958	-0.1722198629651473	0.1745324730857117	0.2108931373071243	-0.00831529293542484	-0.1991051223877536	-0.0573676995996304	-0.3173455249458867	1.336222446547088	-0.01243573511260843	0.5778279485094091	-0.5897894290719404	1.630562944144388	1.630562944144367	-0.01089348195872418	-5.781796264331268e-06	0.6010300513932338	0.09591820460610985	-0.1496748733315672	0.03164190527297624	-0.02598539498599886	-0.2379782195183277	0.02363137604670928	0.04568160148345488	0.1633963457558777	-30.96577096200259	-18.80978236214467	7.613260728520162	7.506226657130201	-620.6988901283202	-64.46288573026496	-26.84380968014439	0.2464209909496552	0.21527781062558	-0.1483735384670803	-1.223121516479437	0.4473715453327206	-0.6072359654216862	1.211728872291696	-1.520778054822409	-1.520778054822565	0.0182610566639204	0.00253545173118586	-0.6037984441603982	0.4383591498540818	-2.499973121544362e-07	-6.057607900066975e-07	1.324905001181251e-06	8.606142225799296e-08	-2.444080331086045e-07	-7.310561516666565e-07	-2.282328135819642e-07
0.55	-0.256515336331063	0.02368032302240178	0.8031241129384726	0.9491403704283884	-0.3055007053626499	-0.02372637410341073	-0.316972492027063	0.7303009198888019	0.7303009198888001	-0.1723300721541998	0.1745324900234073	0.2168720814134223	-0.007335566596257547	-0.196560978149626	-0.05520014244992518	-0.3186260918288623	1.323383020379036	-0.008209407533240549	0.5717533346882622	-0.5775222674487293	1.614622727890827	1.614622727890871	-0.01114678592332493	7.881578360217999e-06	0.594676839535663	0.0999941259605031	-0.1538242255917119	0.03235666412792749	-0.02608963018684803	-0.240079174116942	0.02045915004240536	0.04616246384650492	0.1670754206549707	-32.09514603417736	-18.76512088326158	7.542454711262865	7.889924941373806	-623.3997281015216	-64.32127281255006	-25.88574947765612	0.2607284504378784	0.2179839792756749	-0.1076886735397425	-1.340425808606314	0.4058813218586225	-0.6180617247116137	1.243395398882355	-1.663140036144047	-1.663140036134242	-0.04690568149727389	0.0003506261336303463	-0.6633812044761885	0.3872057539790701	-2.279929200334993e-07	-5.259825818437038e-07	1.223497386634726e-06	8.298581878105952e-08	-2.231183750951573e-07	-6.481051846677302e-07	-2.082563544203499e-07
0.5600000000000001	-0.2584678399475995	0.02313924152267366	0.799933149199482	0.9623056571046027	-0.3055624033627732	-0.01804096832046529	-0.3226848479615091	0.7463620314465641	0.7463620314465652	-0.172442770294594	0.174532557364001	0.2227850336715601	-0.006316081618396896	-0.1939241415037579	-0.05301301281492265	-0.3194982751249045	1.309500688545457	-0.004158361649079793	0.5652592154970996	-0.5648876821636559	1.597382646616426	1.597382646616535	-0.01139127222693467	4.298785206171045e-06	0.5878316817612623	0.1038699323447811	-0.1579735778518595	0.03307142298287322	-0.0261938653876797	-0.2421801287155588	0.01728692403809985	0.04664332620954727	0.1707544955540624	-33.22818175356836	-18.72322986478007	7.475988196114316	8.261172218712732	-626.1748115561549	-64.23916820242952	-24.93044639483979	0.2649594724977727	0.2191923076850338	-0.0666968210804534	-1.431702649584643	0.4123152062912954	-0.6911370394248005	1.285213604664148	-1.780751058990212	-1.780751058990247	0.02002458886212159	-0.0009137818245296592	-0.7021876275263551	0.3983361558310358	-1.971460253731107e-07	-4.573851072990732e-07	1.080261429676536e-06	7.184417954491392e-08	-1.910720483797964e-07	-5.585238219428058e-07	-1.83176653227929e-07
0.5700000000000001	-0.2603935783927293	0.02262009905805434	0.7967355110550076	0.975327144732332	-0.3055843202519306	-0.01242279265926084	-0.328269052362449	0.7622444927534756	0.7622444927534753	-0.1725573885169501	0.1745325809678027	0.2286272131107812	-0.005258661336670584	-0.1912087555198526	-0.05081472916701205	-0.3199593477285785	1.294630631229142	-0.0002563213562661974	0.5583065275494122	-0.5519014341574204	1.578902705637825	1.578902705637925	-0.01152841345562706	2.827615735924641e-06	0.5805265504332641	0.1075763412881608	-0.161993671994471	0.03368173256220151	-0.02627697455970182	-0.2443597705201806	0.01424673590515836	0.04700515923593152	0.1743163027025553	-34.32035999219852	-18.63125695595131	7.395206671875076	8.635390495492874	-628.9057940543976	-64.09125622552392	-23.97856998475801	0.2770296817203294	0.2202721429688455	-0.02534616277245668	-1.539609407595312	0.3743287386597576	-0.7078940287022526	1.313094978658361	-1.912618188460816	-1.912618188462197	-0.03000341086848108	0.0004123603086317218	-0.7563300050423851	0.3510752461269501	-1.713713922344335e-07	-3.874085792976517e-07	9.61798042837073e-07	6.405492007430526e-08	-1.639572412426362e-07	-4.767218797098023e-07	-1.616686477880534e-07
0.58	-0.2622917226739432	0.02212296457983905	0.7935353554479444	0.9881949413599097	-0.3055681806785827	-0.006876255748785601	-0.3337218413673157	0.777935954136367	0.7779359541363668	-0.1726732621380199	0.1745326250888667	0.2343940104128012	-0.004165320569003339	-0.1884053087206107	-0.04861141553411671	-0.3200017676427124	1.27876248851521	0.003452930851881301	0.5509314653512641	-0.5386046029489799	1.559182661812593	1.559182661812685	-0.01164235196966206	8.40223894113826e-06	0.5727552543210329	0.1110540295329611	-0.166013766137085	0.034292042141531	-0.02636008373171295	-0.2465394123248031	0.01120654777221786	0.04736699226231752	0.1778781098510452	-35.41753214386981	-18.54091496596909	7.31754785544555	9.004744651563739	-631.7268068147905	-63.9939107347054	-23.03102851731841	0.2825716355651173	0.2201983046819668	0.01703371682755793	-1.631319729108264	0.3737575893580838	-0.7756118895168821	1.347330245105157	-2.028771628316314	-2.028771628316295	0.02466513179360198	0.0004953767105328558	-0.7954205843729641	0.3525920161151498	-1.522024950310084e-07	-3.156360747013406e-07	8.755966077801394e-07	6.063155053090742e-08	-1.432648782073187e-07	-4.050512757918588e-07	-1.448121530956789e-07
0.59	-0.2641614545549129	0.02164786373612166	0.7903368696967469	1.000899275798931	-0.3055157953974509	-0.001405576777671823	-0.3390401395908636	0.7934242149715471	0.793424214971544	-0.1727898640843725	0.1745326912282129	0.2400808867777512	-0.00303820949693492	-0.1855282460076748	-0.04641001375728226	-0.3196244880670356	1.261947228574266	0.006991932299625227	0.5431385183886254	-0.5250108895878363	1.538272970299665	1.538272970299691	-0.01167144608549845	5.794607463449035e-06	0.5645478185045096	0.1143280548390153	-0.1698870984020783	0.03479216308094824	-0.02642166631639371	-0.2487778657186604	0.008319642970673715	0.04763264776506192	0.1813082803825682	-36.46366261338069	-18.41345457169719	7.229075282952967	9.360784068771137	-634.463716023894	-63.85384169651534	-22.08886439437041	0.292183325484455	0.2199337571564254	0.05868302898301633	-1.730221343704462	0.3390333351053645	-0.7911261010890773	1.37201470755584	-2.151521164031516	-2.151521164041398	-0.01571220632282184	-0.0006465679797815432	-0.8442373623757692	0.3087349694658799	-1.336732079552517e-07	-2.480980117726877e-07	7.908873944066474e-07	5.704059334038821e-08	-1.236472405333047e-07	-3.367781076446821e-07	-1.284867574556255e-07
